<?xml version="1.0" encoding="utf-8"?>
<!-- Generator: Adobe Illustrator 26.3.1, SVG Export Plug-In . SVG Version: 6.00 Build 0)  -->
<svg version="1.1" id="Layer_1" xmlns="http://www.w3.org/2000/svg" xmlns:xlink="http://www.w3.org/1999/xlink" x="0px" y="0px"
	 viewBox="0 0 128 128" style="enable-background:new 0 0 128 128;" xml:space="preserve">
<style type="text/css">
	.st0{fill:#393633;}
</style>
<path class="st0" d="M63.75,128c35.22,0,63.86-28.65,63.86-63.87c0-35.22-28.65-63.86-63.86-63.86S-0.11,28.92-0.11,64.13
	C-0.11,99.35,28.54,128,63.75,128 M63.75,2.49c33.99,0,61.64,27.65,61.64,61.64c0,33.99-27.65,61.65-61.64,61.65
	c-33.99,0-61.64-27.65-61.64-61.65C2.11,30.14,29.76,2.49,63.75,2.49"/>
<path class="st0" d="M67.02,56.8c0.4-0.7,0.16-1.6-0.54-2.01c-0.71-0.4-1.6-0.16-2.01,0.54c-0.4,0.71-0.16,1.6,0.54,2.01
	C65.72,57.75,66.62,57.51,67.02,56.8"/>
<path class="st0" d="M79.44,63.01l1.27,0.9l2.27,1.61c0.2,0.14,0.42,0.21,0.64,0.21c0.35,0,0.69-0.16,0.91-0.47
	c0.36-0.5,0.24-1.19-0.26-1.55l-1.7-1.21l-0.92-0.66l-0.68-0.49l-0.24-0.17l-0.05-0.04c-0.03-0.02-0.08-0.01-0.11-0.03
	c-0.22-0.12-0.45-0.19-0.69-0.16c-0.29,0.04-0.57,0.19-0.75,0.45c-0.11,0.16-0.1,0.35-0.12,0.53c-0.01,0.05-0.03,0.09-0.03,0.14
	c0.01,0.34,0.12,0.67,0.42,0.88L79.44,63.01z"/>
<path class="st0" d="M111.64,30.43C93.02,3.98,56.49-2.37,30.04,16.24C3.59,34.86-2.75,71.39,15.86,97.84
	c18.62,26.45,55.15,32.8,81.6,14.18C123.91,93.41,130.26,56.87,111.64,30.43z M89.11,41.71c0.03,0,0.06,0,0.09,0.01l1.32,0.41
	c0.03,0.84,0.07,1.69,0.06,2.53l-7.43,10.01l-1.18,1.59l-0.11-0.08l-0.76-0.58l-0.13-0.1l0.5-0.86l7.4-12.79
	C88.91,41.77,89.01,41.71,89.11,41.71z M79.95,69.22l2.12,1.5l1.21,0.86l-2.63,2.34l-3.03,2.7l-4.36,3.88l-0.26-0.18l-1.63-1.15
	c-0.5-0.35-1.19-0.24-1.55,0.26c-0.3,0.43-0.2,0.96,0.13,1.34c0.06,0.06,0.06,0.16,0.13,0.21l1.03,0.73l0.43,0.31l-0.66,0.59
	l-0.9,0.81l-1.52,1.35c-0.21-0.31-0.37-0.65-0.62-0.92c-1.1-1.17-2.61-1.95-4.51-2.3c0.88-1.29,1.63-2.76,2.23-4.37
	c0.34,0.13,0.72,0.17,1.07,0.28c0.36,0.11,0.73,0.2,1.11,0.29c0.39,0.09,0.74,0.24,1.15,0.3c1.26,0.19,2.59,0.26,4.02,0.18
	c1.17-0.07,2.14-0.7,2.79-1.57c0.24-0.32,0.43-0.67,0.55-1.05c0.11-0.35,0.22-0.71,0.22-1.1c0-0.01-0.01-0.03-0.01-0.04
	c-0.02-1.6-1.04-3.01-2.57-3.5c-0.23-0.07-0.56-0.2-0.88-0.31c-1.56-0.57-3.99-1.6-5.69-3.12c0.01-0.29,0.01-0.57,0.02-0.83
	l0.39-0.3c0.31-0.13,0.54-0.26,0.83-0.39c0.32-0.14,0.61-0.29,0.92-0.43c0.37-0.18,0.77-0.35,1.12-0.53
	c0.46-0.23,0.88-0.47,1.28-0.71c1.69-0.98,3.03-2,3.92-3.06c0.27-0.32,0.41-0.66,0.61-0.99c0.19-0.31,0.43-0.62,0.56-0.95
	c0-0.01,0.01-0.02,0.01-0.03c0.22-0.58,0.25-1.17,0.26-1.76c0-0.45-0.1-0.91-0.21-1.36c-0.1-0.4-0.15-0.8-0.35-1.21l0.55,0.43
	l0.87,0.67l0.1,0.07l0.24,0.18l0.55,0.43l0.39,0.3l0.5,0.38l0.42,0.33l0.14,0.11l0.23,0.18l0.65,0.5l0.23,0.18l0.65,0.5l0.23,0.18
	l0.12,0.09l0.89,0.69l0.89,0.69l2.22,1.71c0.04,0.03,0.06,0.09,0.1,0.12c0.83,0.7,1.36,1.69,1.39,2.79c0.04,1.15-0.42,2.24-1.28,3
	l-1.77,1.58l-1.66-1.18l-2.08-1.48c-0.5-0.36-1.19-0.24-1.55,0.26C79.33,68.17,79.45,68.87,79.95,69.22z M83.99,41.8l-4.63,12.04
	l-0.17,0.29l-0.42-0.32l3.43-13.24L83.99,41.8z M66.62,48.31c-0.79-0.06-1.58-0.02-2.39,0.08c-1.08-2.84-2.62-5.49-4.75-8.01
	c-1.2-1.43-2.57-2.67-4.01-3.82c-0.16-1.31-0.25-2.63-0.21-3.96c3.8,2.37,6.91,5.69,9.04,9.68C65.37,44.28,66.12,46.28,66.62,48.31z
	 M44.21,46.56l-0.45,0.78l-3.22,5.61l-5.61-3.22l-0.78-0.45c-1.54-0.88-2.08-2.87-1.2-4.41c0.88-1.54,2.87-2.08,4.41-1.2l0.78,0.45
	l0.45-0.78c0.88-1.54,2.87-2.08,4.41-1.2C44.56,43.03,45.1,45.02,44.21,46.56z M33.02,84.8c0.66-1.06,1.73-1.78,3.03-1.95
	c0.19-0.02,0.35-0.11,0.55-0.11c0.19,0,0.36,0.09,0.54,0.11c0.25,0.03,0.5,0.07,0.74,0.15c0.12,0.04,0.27,0.03,0.39,0.08
	c0-0.01,0-0.02,0-0.03c-2.27-17.2,17.32-25.47,17.51-25.55l0.28-0.11l2.87-3.73l0,0l0.35-0.4l0.73-0.83
	c-0.15-0.14-0.34-0.26-0.5-0.39c-0.76-0.63-1.55-1.25-2.37-1.85c-1.62-1.2-3.3-2.44-4.58-3.96c-2.91-3.46-4.83-7.58-5.62-11.99
	c2.34,0.85,4.51,2.06,6.49,3.53c0.44,0.32,0.86,0.67,1.27,1.02c0.52,0.44,1.01,0.89,1.49,1.37c0.55,0.54,1.1,1.07,1.6,1.67
	c2.19,2.6,3.71,5.33,4.69,8.29c0.1,0.29,0.21,0.57,0.3,0.86l0.8-0.23l0.26-0.08c0,0,0,0,0,0l-0.09,0.05
	c1.11-0.22,2.23-0.26,3.31-0.11c0.39,0.05,0.77,0.12,1.15,0.21c0.4,0.1,0.79,0.25,1.17,0.4c0.7,0.28,1.38,0.6,2,1.03
	c0.35,0.24,0.68,0.52,1,0.8c0.32,0.28,0.61,0.6,0.89,0.92c0.52,0.6,0.99,1.24,1.37,1.98c0.46,0.91,0.54,1.77,0.22,2.61
	c-0.73,1.97-3.47,3.93-8.15,5.85l-0.01,0l-0.65,0.49l-0.98,0.74l0.01,0.55c0.01,0.47-0.01,1.02-0.03,1.58c0,0.07,0,0.13,0,0.2
	l-0.01,0.17l-0.01,0.31l0.23,0.23l0.12,0.12c0.73,0.73,1.61,1.34,2.51,1.89c1.91,1.16,3.97,1.98,5.29,2.41
	c0.57,0.18,0.92,0.69,0.99,1.27c0.01,0.06,0.05,0.1,0.05,0.16c0,0.38-0.16,0.71-0.4,0.98c-0.27,0.3-0.63,0.51-1.07,0.54
	c-0.66,0.04-1.24-0.07-1.86-0.09c-0.35-0.02-0.72-0.01-1.06-0.05c-0.39-0.04-0.82-0.04-1.2-0.11c-0.38-0.07-0.7-0.25-1.06-0.35
	c-0.74-0.21-1.51-0.39-2.19-0.73l-1.17-0.59l-0.39,1.25c-0.66,2.1-1.57,3.94-2.7,5.46l-0.23,0.54l0.02,0.4c0.01,0.2,0.03,0.4,0,0.62
	l-0.16,1.17l1.17,0.09c1.66,0.14,2.9,0.65,3.83,1.43c0.41,0.34,0.73,0.76,1,1.23c0.19,0.33,0.42,0.61,0.55,1
	c0.12,0.38,0.14,0.86,0.21,1.3c0.05,0.37,0.17,0.68,0.17,1.1l0.15,1.04l0.01,0.05h1.09c0.48,0,0.95,0.48,1.33,1.06
	c0.09,0.14,0.21,0.25,0.29,0.41H59.77c-1.42,0-2.94,0.12-4.48,0.24c-1.92,0.15-3.86,0.27-5.7,0.19c-1.23-0.05-2.42-0.18-3.5-0.51
	c-1.27-0.39-2.42-1.03-3.46-1.83c-0.01,0-0.01-0.01-0.02-0.01c-0.3-0.24-0.58-0.49-0.86-0.76c-0.37-0.35-0.74-0.69-1.05-1.09
	c-0.03-0.04-0.05-0.09-0.08-0.12c-0.13,0.39-0.32,0.74-0.55,1.07c-0.16,0.24-0.3,0.5-0.5,0.7c-0.06,0.06-0.15,0.09-0.22,0.15
	c-0.75,0.64-1.69,1.07-2.75,1.07c-0.86,0-1.61-0.32-2.28-0.75c-0.63-0.41-1.15-0.94-1.5-1.61c-0.04-0.07-0.1-0.13-0.13-0.2
	c-0.23-0.53-0.37-1.11-0.37-1.72C32.31,86.2,32.61,85.46,33.02,84.8z M84.17,57.97l-0.45-0.34l1.08-1.45l5.39-6.28
	c-0.13,0.98-0.29,1.95-0.48,2.92L84.17,57.97z M99.57,99.36c-19.24,19.24-50.44,19.24-69.69,0c-2.6-2.6-4.73-5.48-6.62-8.47
	c18.91,16.5,47.61,15.79,65.62-2.22c18.01-18.01,18.72-46.71,2.22-65.62c2.99,1.89,5.87,4.02,8.47,6.62
	C118.81,48.91,118.81,80.11,99.57,99.36z"/>
</svg>
