<?xml version="1.0" encoding="utf-8"?>
<!-- Generator: Adobe Illustrator 26.3.1, SVG Export Plug-In . SVG Version: 6.00 Build 0)  -->
<svg version="1.1" id="Layer_1" xmlns="http://www.w3.org/2000/svg" xmlns:xlink="http://www.w3.org/1999/xlink" x="0px" y="0px"
	 viewBox="0 0 100 100" style="enable-background:new 0 0 100 100;" xml:space="preserve">
<style type="text/css">
	.st0{fill:#FFFFFF;}
</style>
<path d="M100,13.48v73.05c0,7.44-6.03,13.47-13.47,13.47h-3.69H65.09H32.33l0,0H13.48C6.03,100,0,93.97,0,86.52V13.48
	C0,6.03,6.03,0,13.48,0h73.05C93.97,0,100,6.03,100,13.48L100,13.48z"/>
<path class="st0" d="M67.55,28.1c0-2.89-1.01-5.24-2.68-7.09c0.27-0.67,1.16-3.35-0.26-6.99c0,0-2.18-0.71-7.15,2.71
	c-2.08-0.59-4.31-0.88-6.52-0.89c-2.21,0.01-4.43,0.3-6.51,0.89c-4.97-3.42-7.15-2.71-7.15-2.71c-1.41,3.64-0.52,6.33-0.25,6.99
	c-1.66,1.85-2.68,4.21-2.68,7.09c0,10.12,6.07,12.39,11.85,13.06c-0.74,0.66-1.42,1.83-1.65,3.53c-1.48,0.68-5.25,1.84-7.57-2.2
	c0,0-1.38-2.54-3.99-2.72c0,0-2.54-0.03-0.18,1.61c0,0,1.71,0.81,2.89,3.87c0,0,1.53,4.72,8.76,3.12c0.01,1.1,0.02,0.49,0.02,3.4
	h12.92c0.01-3.42,0.02-3.79,0.02-5.74c0-2.47-0.83-4.07-1.76-4.89C61.46,40.48,67.55,38.25,67.55,28.1z"/>
<g transform="translate(0.000000,324.000000) scale(0.100000,-0.100000)">
	<path class="st0" d="M135.56,2660.89c-16.07-1.9-24.79-3.94-34.95-8.34c-17.51-7.58-31.77-21.53-41.25-40.34
		c-5.38-10.84-10.16-28.13-12.59-45.95c-1.9-13.87-1.9-47.01-0.08-59.9c2.73-18.5,6.37-30.48,13.12-43.6
		c12.81-24.57,33.97-39.2,65.74-45.26c5.69-1.14,10.99-1.36,28.2-1.36c19.26,0,21.99,0.23,29.19,1.74
		c14.48,3.18,29.19,8.72,38.06,14.25l2.88,1.82v59.82c0,53.38-0.15,59.97-1.21,61.03c-1.06,1.06-5.76,1.21-40.79,1.21
		c-29.8,0-39.81-0.23-40.49-0.91c-0.68-0.68-0.91-6.52-0.91-21.61c0-19.64,0.08-20.7,1.44-21.46c0.91-0.45,7.66-0.76,16.68-0.76
		h15.24v-23.05c0-20.62-0.15-23.12-1.21-23.5c-6.07-2.35-32.98-2.35-40.49-0.08c-15.62,4.85-26.08,16.38-31.39,34.65
		c-3.34,11.45-4.47,21.46-4.47,38.52c0,38.67,9.4,60.5,30.56,70.44c8.87,4.17,14.33,5,33.36,5c18.35-0.08,24.57-0.83,36.47-4.62
		c4.25-1.36,6.37-1.67,7.35-1.14c1.67,0.91,10.99,39.2,10.01,41.09c-1.52,2.73-16.6,7.89-29.57,10.08
		C171.04,2660.89,145.41,2662.11,135.56,2660.89z"/>
	<path class="st0" d="M448.01,2651.11c-1.06-1.06-1.21-12.51-1.21-114.71c0-89.62,0.23-113.81,0.99-114.79
		c0.83-1.21,3.03-1.29,24.79-1.14l23.88,0.23l0.23,49.51l0.15,49.43h33.74h33.74v-48.75c0-36.92,0.23-48.98,0.91-49.66
		c1.29-1.29,46.93-1.29,48.22,0c1.29,1.29,1.29,228.9,0,230.19c-1.29,1.29-46.93,1.29-48.22,0c-0.68-0.68-0.91-11.3-0.91-43.22
		v-42.31h-33.74h-33.74v42.31c0,31.92-0.23,42.53-0.91,43.22c-0.68,0.68-7.05,0.91-23.81,0.91
		C452.25,2652.33,448.99,2652.17,448.01,2651.11z"/>
	<path class="st0" d="M804.66,2650.88c-1.21-2.27-1.06-228.44,0.15-229.66c0.68-0.68,5.69-0.91,17.82-0.91
		c19.18,0,18.12-0.38,18.95,6.9c0.23,2.05,0.68,3.87,0.91,4.02c0.3,0.23,2.73-1.14,5.38-2.96c6.14-4.17,14.18-7.58,23.5-10.01
		c10.46-2.81,28.43-3.26,38.82-1.14c10.99,2.27,17.89,5.91,24.87,12.97c6.44,6.52,10.01,12.66,13.65,23.35
		c4.09,12.36,5.46,22.52,5.84,44.43c0.61,28.43-1.44,41.17-8.95,56.49c-3.18,6.52-4.85,8.87-9.63,13.72
		c-9.86,9.86-20.55,14.25-37,15.01c-14.18,0.68-30.56-2.73-41.17-8.57c-1.82-0.99-3.41-1.82-3.56-1.82c-0.15,0-0.3,17.51-0.3,38.9
		c0,29.27-0.23,39.12-0.91,39.81s-7.13,0.91-24.26,0.91C806.48,2652.33,805.42,2652.25,804.66,2650.88z M887.99,2541.17
		c4.93-1.44,10.08-5.99,12.66-11.07c3.72-7.28,4.47-12.43,4.47-30.93c0-18.35-0.99-25.55-4.25-32c-3.87-7.73-7.89-9.86-19.03-10.31
		c-9.48-0.38-16.68,0.99-23.96,4.4l-4.7,2.2v35.64v35.71l1.74,1.06C863.04,2541.17,879.35,2543.75,887.99,2541.17z"/>
	<path class="st0" d="M264.83,2645.8c-11.52-4.17-18.42-14.1-18.42-26.46c0-8.42,2.12-13.8,7.73-19.33
		c6.52-6.52,10.16-7.96,19.79-7.96c7.28,0,8.34,0.15,11.98,2.12c5.46,2.88,10.46,8.04,12.89,13.27c1.82,3.79,2.05,5.31,2.05,11.9
		s-0.23,8.11-2.05,11.9c-2.58,5.53-7.81,10.77-13.34,13.34C279.99,2647.17,270.21,2647.7,264.83,2645.8z"/>
	<path class="st0" d="M341.18,2622.98c-0.3-0.23-0.53-10.69-0.53-23.12s-0.08-22.59-0.15-22.59c-2.88-0.38-24.57-6.22-25.17-6.82
		c-0.53-0.53-0.83-5.69-0.83-16.38c0-12.97,0.15-15.62,1.14-16.23c0.61-0.38,6.52-0.76,13.04-0.76h11.9l0.23-40.34
		c0.3-36.09,0.45-40.94,1.67-45.34c4.55-16.45,13.95-26.69,29.27-32c9.17-3.18,25.55-4.47,36.62-2.88
		c8.34,1.21,15.62,3.03,16.83,4.32c1.67,1.67,1.67,33.28,0,35.1c-0.99,1.14-2.43,1.21-10.08,0.91c-7.05-0.3-9.93-0.08-13.42,0.99
		c-5.38,1.52-9.7,5.46-10.92,9.86c-0.53,1.97-0.83,14.33-0.83,36.24v33.13h16.91c12.13,0,17.14,0.23,17.82,0.91
		c0.68,0.68,0.91,6.14,0.91,20.09c0,18.12-0.08,19.18-1.44,19.94c-0.91,0.45-8.04,0.76-17.82,0.76h-16.38l-0.15,22.22l-0.23,22.14
		l-23.96,0.23C352.48,2623.44,341.48,2623.29,341.18,2622.98z"/>
	<path class="st0" d="M249.36,2577.11c-1.06-1.52-1.21-10.16-1.21-77.71c0-75.06,0-76.05,1.52-77.56c1.44-1.44,2.5-1.52,24.11-1.52
		c16.53,0,22.82,0.23,23.5,0.91s0.91,19.18,0.91,78.47c0,75.82,0,77.56-1.44,78.32c-0.91,0.45-9.86,0.76-23.88,0.76
		C250.65,2578.78,250.5,2578.78,249.36,2577.11z"/>
	<path class="st0" d="M636.42,2576.96c-0.68-0.83-0.83-15.85-0.68-60.5c0.3-58.53,0.3-59.44,1.97-65.43
		c6.82-24.79,23.28-35.26,55.35-35.26c17.29,0,27.67,2.43,43.9,10.31c4.7,2.27,8.64,4.09,8.87,4.09c0.15,0,0.53-1.9,0.83-4.17
		c0.76-6.29,1.06-6.44,17.97-6.44c13.27,0,14.33,0.08,15.77,1.52c1.52,1.52,1.52,2.5,1.52,77.79c0,51.1-0.23,76.73-0.76,77.72
		c-0.76,1.36-1.82,1.44-24.19,1.44c-18.65,0-23.58-0.23-24.26-0.99c-0.61-0.76-0.91-17.21-0.99-57.09l-0.23-55.95l-3.03-1.74
		c-9.55-5.46-25.7-7.51-33.06-4.25c-4.02,1.82-6.98,5.31-8.19,9.7c-0.53,2.05-0.83,19.86-0.83,55.2c0,34.5-0.3,52.69-0.76,53.68
		c-0.76,1.36-1.82,1.44-24.57,1.44C641.5,2578.02,637.1,2577.79,636.42,2576.96z"/>
</g>
</svg>
