<?xml version="1.0" encoding="UTF-8"?>
<svg id="Layer_1" data-name="Layer 1" xmlns="http://www.w3.org/2000/svg" version="1.1" viewBox="0 0 500 500">
  <defs>
    <style>
      .cls-1 {
        fill: #fff;
        stroke-width: 0px;
      }
    </style>
  </defs>
  <path class="cls-1" d="M249.8,492.9c134.1,0,243.2-109.1,243.2-243.2S383.8,6.6,249.8,6.6,6.6,115.7,6.6,249.7s109.1,243.2,243.2,243.2M249.8,15c129.4,0,234.7,105.3,234.7,234.7s-105.3,234.7-234.7,234.7S15,379.2,15,249.7,120.3,15,249.8,15"/>
  <path class="cls-1" d="M262.2,221.8c1.5-2.7.6-6.1-2.1-7.6-2.7-1.5-6.1-.6-7.6,2.1-1.5,2.7-.6,6.1,2.1,7.6,2.7,1.5,6.1.6,7.6-2.1"/>
  <path class="cls-1" d="M309.5,245.5l4.8,3.4,8.6,6.1c.7.5,1.6.8,2.4.8,1.3,0,2.6-.6,3.5-1.8,1.4-1.9.9-4.5-1-5.9l-6.5-4.6-3.5-2.5-2.6-1.8-.9-.7h-.2c-.1-.2-.3-.2-.4-.2-.8-.5-1.7-.7-2.6-.6-1.1.2-2.2.7-2.8,1.7-.4.6-.4,1.3-.5,2,0,.2-.1.3-.1.5,0,1.3.4,2.6,1.6,3.4l.2.2Z"/>
  <path class="cls-1" d="M432.1,121.4C361.2,20.7,222.1-3.5,121.4,67.4,20.7,138.3-3.5,277.4,67.4,378.1c70.9,100.7,210,124.9,310.7,54,100.7-70.9,124.9-210,54-310.7ZM346.3,164.4c.1,0,.2,0,.3,0l5,1.6c.1,3.2.3,6.4.2,9.6l-28.3,38.1-4.5,6.1-.4-.3-2.9-2.2-.5-.4,1.9-3.3,28.2-48.7c.2-.3.6-.5.9-.5ZM311.4,269.1l8.1,5.7,4.6,3.3-10,8.9-11.5,10.3-16.6,14.8-1-.7-6.2-4.4c-1.9-1.3-4.5-.9-5.9,1-1.1,1.6-.8,3.7.5,5.1.2.2.2.6.5.8l3.9,2.8,1.6,1.2-2.5,2.2-3.4,3.1-5.8,5.2c-.8-1.2-1.4-2.5-2.4-3.5-4.2-4.4-9.9-7.4-17.2-8.7,3.4-4.9,6.2-10.5,8.5-16.7,1.3.5,2.7.7,4.1,1.1,1.4.4,2.8.8,4.2,1.1,1.5.3,2.8.9,4.4,1.1,4.8.7,9.9,1,15.3.7,4.5-.3,8.2-2.7,10.6-6,.9-1.2,1.6-2.5,2.1-4,.4-1.3.8-2.7.8-4.2s0-.1,0-.2c0-6.1-4-11.4-9.8-13.3-.9-.3-2.1-.8-3.4-1.2-5.9-2.2-15.2-6.1-21.7-11.9,0-1.1,0-2.2,0-3.2l1.5-1.2c1.2-.5,2-1,3.2-1.5,1.2-.5,2.3-1.1,3.5-1.6,1.4-.7,2.9-1.3,4.3-2,1.7-.9,3.3-1.8,4.9-2.7,6.4-3.7,11.5-7.6,14.9-11.7,1-1.2,1.6-2.5,2.3-3.8.7-1.2,1.7-2.4,2.1-3.6,0,0,0,0,0,0,.8-2.2,1-4.5,1-6.7,0-1.7-.4-3.5-.8-5.2-.4-1.5-.6-3.1-1.3-4.6l2.1,1.6,3.3,2.5.4.3.9.7,2.1,1.6,1.5,1.1,1.9,1.5,1.6,1.2.5.4.9.7,2.5,1.9.9.7,2.5,1.9.9.7.5.4,3.4,2.6,3.4,2.6,8.4,6.5c.2.1.2.3.4.5,3.2,2.7,5.2,6.4,5.3,10.6.2,4.4-1.6,8.5-4.9,11.4l-6.7,6-6.3-4.5-7.9-5.6c-1.9-1.4-4.5-.9-5.9,1-1.4,1.9-.9,4.5,1,5.9ZM326.8,164.7l-17.6,45.9-.6,1.1-1.6-1.2,13.1-50.4,6.8,4.7ZM260.7,189.5c-3-.2-6,0-9.1.3-4.1-10.8-10-20.9-18.1-30.5-4.6-5.4-9.8-10.2-15.3-14.5-.6-5-1-10-.8-15.1,14.5,9,26.3,21.7,34.4,36.8,4.1,7.6,6.9,15.2,8.8,23ZM175.4,182.8l-1.7,3-12.2,21.4-21.4-12.2-3-1.7c-5.9-3.4-7.9-10.9-4.6-16.8,3.4-5.9,10.9-7.9,16.8-4.6l3,1.7,1.7-3c3.4-5.9,10.9-7.9,16.8-4.6,5.9,3.4,7.9,10.9,4.6,16.8ZM132.7,328.4c2.5-4,6.6-6.8,11.5-7.4.7,0,1.3-.4,2.1-.4s1.4.3,2.1.4c1,.1,1.9.3,2.8.6.5.2,1,.1,1.5.3,0,0,0,0,0-.1-8.6-65.5,65.9-97,66.7-97.3l1.1-.4,10.9-14.2h0s1.3-1.5,1.3-1.5l2.8-3.2c-.6-.5-1.3-1-1.9-1.5-2.9-2.4-5.9-4.7-9-7.1-6.2-4.6-12.6-9.3-17.4-15.1-11.1-13.2-18.4-28.9-21.4-45.7,8.9,3.2,17.2,7.8,24.7,13.4,1.7,1.2,3.3,2.5,4.9,3.9,2,1.7,3.8,3.4,5.7,5.2,2.1,2.1,4.2,4.1,6.1,6.4,8.3,9.9,14.1,20.3,17.9,31.6.4,1.1.8,2.2,1.1,3.3l3.1-.9,1-.3h0s-.3.2-.3.2c4.2-.9,8.5-1,12.6-.4,1.5.2,2.9.4,4.4.8,1.5.4,3,.9,4.5,1.5,2.7,1,5.3,2.3,7.6,3.9,1.3.9,2.6,2,3.8,3.1,1.2,1.1,2.3,2.3,3.4,3.5,2,2.3,3.8,4.7,5.2,7.5,1.8,3.5,2,6.7.8,9.9-2.8,7.5-13.2,15-31,22.3h0s-2.5,1.9-2.5,1.9l-3.7,2.8v2.1c0,1.8,0,3.9,0,6,0,.3,0,.5,0,.8v.7s0,1.2,0,1.2l.9.9.4.4c2.8,2.8,6.1,5.1,9.6,7.2,7.3,4.4,15.1,7.5,20.1,9.2,2.2.7,3.5,2.6,3.8,4.9,0,.2.2.4.2.6,0,1.4-.6,2.7-1.5,3.7-1,1.1-2.4,1.9-4.1,2-2.5.2-4.7-.3-7.1-.4-1.3,0-2.7,0-4-.2-1.5-.2-3.1-.1-4.6-.4-1.4-.3-2.7-.9-4-1.3-2.8-.8-5.7-1.5-8.3-2.8l-4.4-2.2-1.5,4.7c-2.5,8-6,15-10.3,20.8l-.9,2v1.5c.1.8.2,1.5,0,2.4l-.6,4.4,4.5.4c6.3.5,11,2.5,14.6,5.5,1.5,1.3,2.8,2.9,3.8,4.7.7,1.2,1.6,2.3,2.1,3.8.5,1.4.5,3.3.8,5,.2,1.4.6,2.6.7,4.2l.6,4v.2h4.2c1.8,0,3.6,1.8,5.1,4,.4.5.8,1,1.1,1.6h-41.1c-5.4,0-11.2.4-17,.9-7.3.6-14.7,1-21.7.7-4.7-.2-9.2-.7-13.3-2-4.8-1.5-9.2-3.9-13.2-7,0,0,0,0,0,0-1.2-.9-2.2-1.9-3.3-2.9-1.4-1.3-2.8-2.6-4-4.1-.1-.1-.2-.3-.3-.5-.5,1.5-1.2,2.8-2.1,4.1-.6.9-1.1,1.9-1.9,2.7-.2.2-.6.3-.8.6-2.9,2.4-6.4,4.1-10.5,4.1s-6.1-1.2-8.7-2.9c-2.4-1.6-4.4-3.6-5.7-6.1-.1-.3-.4-.5-.5-.8-.9-2-1.4-4.2-1.4-6.6s1.1-6,2.7-8.5ZM327.5,226.3l-1.7-1.3,4.1-5.5,20.5-23.9c-.5,3.7-1.1,7.4-1.8,11.1l-21.1,19.6ZM386.1,383.9c-73.3,73.3-192.1,73.3-265.3,0-9.9-9.9-18-20.9-25.2-32.3,72,62.8,181.3,60.1,249.8-8.4,68.6-68.6,71.3-177.8,8.4-249.8,11.4,7.2,22.3,15.3,32.3,25.2,73.3,73.3,73.3,192.1,0,265.3Z"/>
</svg>