<?xml version="1.0" encoding="utf-8"?>
<!-- Generator: Adobe Illustrator 26.3.1, SVG Export Plug-In . SVG Version: 6.00 Build 0)  -->
<svg version="1.1" id="Layer_1" xmlns="http://www.w3.org/2000/svg" xmlns:xlink="http://www.w3.org/1999/xlink" x="0px" y="0px"
	 viewBox="0 0 100 100" style="enable-background:new 0 0 100 100;" xml:space="preserve">
<style type="text/css">
	.st0{fill:#33B44A;}
	.st1{fill:#FFFFFF;}
</style>
<path class="st0" d="M100,13.47v73.05c0,7.44-6.03,13.48-13.48,13.48h-3.69H65.09H32.33v0H13.47C6.03,100,0,93.97,0,86.53V13.47
	C0,6.03,6.03,0,13.47,0h73.05C93.97,0,100,6.03,100,13.47L100,13.47z"/>
<path class="st1" d="M16.42,39.93h4.72v-4.01c0-1.48-0.14-1.62-0.31-2.47c0,0,0.02-0.17,0.14,0c0.13,0.17,4.35,6.48,4.35,6.48h4.73
	V27.59h-4.73v3.7c0,1.65,0.21,2.11,0.42,3.14c0,0-0.02,0.18-0.14,0c-0.13-0.18-4.44-6.84-4.44-6.84h-4.74L16.42,39.93z M41.18,27.59
	h-5.47l-4.72,12.34h5.23l0.4-1.54h3.73l0.45,1.54h5.23L41.18,27.59z M37.5,35.46l0.64-2.5c0.14-0.51,0.24-1.24,0.24-1.24
	c0.02-0.11,0.17-0.11,0.2,0c0.03,0.17,0.1,0.7,0.25,1.22l0.66,2.52H37.5z M43.76,27.59l5.27,12.34h4.19l5.27-12.34h-5.16l-1.74,5.62
	c-0.2,0.6-0.34,1.93-0.34,1.93c-0.02,0.1-0.14,0.11-0.18,0c0,0-0.14-1.33-0.34-1.93l-1.8-5.62H43.76z M68.8,39.93v-3.37h-4.31v-1.21
	h3.81v-3.21h-3.81v-1.18h4.17v-3.37h-9.15v12.34L68.8,39.93z M79.81,35.14c-0.1-0.07,0-0.1,0-0.1c1.84-0.56,2.63-1.34,2.63-3.21
	c0-3.11-2.6-4.29-5.66-4.29h-5.97v12.34h4.83v-3.96c0,0,0.03-0.14,0.12,0l2.13,3.96h5.7l-2.96-4.01
	C80.37,35.52,79.91,35.21,79.81,35.14z M75.99,33.02h-0.34v-2.1h0.38c0.85,0,1.59,0.11,1.59,1.06C77.61,32.9,76.8,33.02,75.99,33.02
	z M26.1,48.87c0,0-2.34,0-4.46,2.06v-8.31H16.4v21.84h5.3v-1.71c0,0,1.25,2.26,4.4,2.26c0,0,7.39-0.27,7.39-8.15
	C33.49,56.86,33.22,48.87,26.1,48.87z M24.94,60.4c-1.86,0-3.37-1.51-3.37-3.37c0-1.86,1.51-3.37,3.37-3.37
	c1.86,0,3.37,1.51,3.37,3.37C28.31,58.89,26.8,60.4,24.94,60.4z M35.17,42.13v5.05c0,0,2.39-0.11,2.39,4.35v12.93h5.05V50.34
	C42.62,50.34,42.83,42.13,35.17,42.13z M54.97,48.94c0,0-8.66,0-8.66,8.09c0,0-0.28,7.98,8.66,7.98c0,0,8.86-0.01,8.86-7.98
	C63.83,57.03,64.12,48.94,54.97,48.94z M54.97,60.4c-1.86,0-3.37-1.51-3.37-3.37c0-1.86,1.51-3.37,3.37-3.37
	c1.86,0,3.37,1.51,3.37,3.37C58.34,58.89,56.83,60.4,54.97,60.4z M78.3,49.47v1.47c0,0-1.51-2-4.4-2c0,0-7.42-0.31-7.42,8.03
	c0,0-0.08,7.78,7.21,7.78c0,0,2.98,0.12,4.6-2v1.22c0,0,0.37,3.83-3.34,3.83H73.7v4.64h2.04c0,0,7.66,0.08,7.66-8.19V49.47
	L78.3,49.47L78.3,49.47z M75.17,60.4c-1.86,0-3.37-1.51-3.37-3.37c0-1.86,1.51-3.37,3.37-3.37c1.86,0,3.37,1.51,3.37,3.37
	C78.54,58.89,77.03,60.4,75.17,60.4z"/>
</svg>
