<?xml version="1.0" encoding="utf-8"?>
<!-- Generator: Adobe Illustrator 26.3.1, SVG Export Plug-In . SVG Version: 6.00 Build 0)  -->
<svg version="1.1" id="Layer_1" xmlns="http://www.w3.org/2000/svg" xmlns:xlink="http://www.w3.org/1999/xlink" x="0px" y="0px"
	 viewBox="0 0 100 100" style="enable-background:new 0 0 100 100;" xml:space="preserve">
<style type="text/css">
	.st0{fill:#FF0000;}
	.st1{fill:#FFFFFF;}
</style>
<path class="st0" d="M100,13.48v73.05c0,7.44-6.03,13.47-13.47,13.47h-3.69H65.09H32.33l0,0H13.48C6.03,100,0,93.97,0,86.52V13.48
	C0,6.03,6.03,0,13.48,0h73.05C93.97,0,100,6.03,100,13.48L100,13.48z"/>
<path class="st1" d="M36.99,45.94L62.35,31.3L36.99,16.66C36.99,16.66,36.99,45.94,36.99,45.94z"/>
<g>
	<g id="youtube-paths">
		<path class="st1" d="M9.33,74.03l-5-18.05h4.36l1.75,8.18c0.45,2.02,0.77,3.73,0.99,5.16h0.13c0.15-1.02,0.48-2.73,0.99-5.13
			l1.81-8.21h4.36l-5.06,18.05v8.66H9.33L9.33,74.03L9.33,74.03z"/>
		<path class="st1" d="M20.03,82.12c-0.88-0.59-1.51-1.52-1.88-2.77c-0.37-1.25-0.56-2.92-0.56-5v-2.83c0-2.1,0.21-3.79,0.64-5.06
			c0.43-1.27,1.09-2.2,1.99-2.78c0.9-0.58,2.08-0.88,3.55-0.88c1.44,0,2.6,0.3,3.47,0.89c0.87,0.59,1.51,1.52,1.91,2.78
			c0.4,1.26,0.6,2.95,0.6,5.05v2.83c0,2.08-0.2,3.75-0.59,5.01c-0.39,1.26-1.03,2.19-1.91,2.77c-0.88,0.58-2.07,0.88-3.58,0.88
			C22.12,83.01,20.91,82.71,20.03,82.12z M24.96,79.06c0.24-0.64,0.37-1.67,0.37-3.12v-6.08c0-1.4-0.12-2.43-0.37-3.07
			c-0.25-0.65-0.67-0.97-1.29-0.97c-0.59,0-1.01,0.32-1.26,0.97c-0.25,0.65-0.37,1.67-0.37,3.07v6.08c0,1.44,0.12,2.48,0.35,3.12
			c0.23,0.64,0.66,0.96,1.27,0.96C24.29,80.02,24.72,79.7,24.96,79.06z"/>
		<path class="st1" d="M43.94,82.69H40.5l-0.38-2.39h-0.1c-0.93,1.8-2.33,2.7-4.2,2.7c-1.29,0-2.25-0.43-2.87-1.27
			c-0.62-0.85-0.92-2.18-0.92-3.98V63.18h4.39V77.5c0,0.87,0.1,1.49,0.29,1.86c0.19,0.37,0.51,0.56,0.96,0.56
			c0.38,0,0.75-0.12,1.1-0.35c0.35-0.23,0.61-0.53,0.78-0.89v-15.5h4.39L43.94,82.69L43.94,82.69z"/>
		<path class="st1" d="M55.87,59.52h-4.36v23.18h-4.3V59.52h-4.36v-3.53h13.02L55.87,59.52L55.87,59.52z"/>
		<path class="st1" d="M66.47,82.69h-3.44l-0.38-2.39h-0.1c-0.93,1.8-2.33,2.7-4.2,2.7c-1.29,0-2.25-0.43-2.87-1.27
			c-0.62-0.85-0.92-2.18-0.92-3.98V63.18h4.39V77.5c0,0.87,0.1,1.49,0.29,1.86s0.51,0.56,0.96,0.56c0.38,0,0.75-0.12,1.1-0.35
			s0.61-0.53,0.78-0.89v-15.5h4.39L66.47,82.69L66.47,82.69z"/>
		<path class="st1" d="M81.01,66.3c-0.27-1.23-0.7-2.12-1.29-2.67c-0.59-0.55-1.41-0.83-2.45-0.83c-0.81,0-1.56,0.23-2.26,0.69
			c-0.7,0.46-1.24,1.06-1.62,1.8h-0.03V55h-4.23v27.69h3.63l0.45-1.85h0.1c0.34,0.66,0.85,1.18,1.53,1.56
			c0.68,0.38,1.43,0.57,2.26,0.57c1.48,0,2.58-0.69,3.28-2.05c0.7-1.37,1.05-3.51,1.05-6.42v-3.09
			C81.41,69.24,81.27,67.53,81.01,66.3z M76.98,74.26c0,1.42-0.06,2.54-0.18,3.34s-0.31,1.38-0.59,1.72
			c-0.27,0.34-0.65,0.51-1.11,0.51c-0.36,0-0.7-0.08-1-0.26c-0.31-0.17-0.56-0.43-0.75-0.76V67.73c0.15-0.53,0.4-0.96,0.77-1.3
			c0.36-0.34,0.75-0.51,1.18-0.51c0.45,0,0.79,0.18,1.03,0.52c0.25,0.35,0.41,0.94,0.51,1.77c0.1,0.83,0.14,2,0.14,3.53V74.26
			L76.98,74.26L76.98,74.26z"/>
		<path class="st1" d="M87.64,75.38c0,1.25,0.04,2.19,0.11,2.82c0.07,0.63,0.23,1.08,0.46,1.37c0.23,0.29,0.59,0.43,1.08,0.43
			c0.66,0,1.11-0.26,1.35-0.77c0.25-0.51,0.38-1.36,0.4-2.55l3.79,0.22c0.02,0.17,0.03,0.4,0.03,0.7c0,1.8-0.49,3.15-1.48,4.04
			s-2.38,1.34-4.18,1.34c-2.17,0-3.68-0.68-4.55-2.04c-0.87-1.36-1.3-3.46-1.3-6.3v-3.41c0-2.93,0.45-5.07,1.35-6.42
			c0.9-1.35,2.44-2.02,4.63-2.02c1.51,0,2.66,0.27,3.47,0.83c0.81,0.55,1.37,1.41,1.7,2.58c0.33,1.17,0.49,2.78,0.49,4.84v3.34
			h-7.36L87.64,75.38L87.64,75.38z M88.2,66.19c-0.22,0.27-0.37,0.73-0.45,1.35c-0.07,0.63-0.11,1.58-0.11,2.85v1.4h3.21v-1.4
			c0-1.25-0.04-2.2-0.13-2.85c-0.08-0.65-0.24-1.1-0.46-1.37c-0.22-0.26-0.57-0.4-1.03-0.4C88.76,65.77,88.42,65.91,88.2,66.19z"/>
	</g>
</g>
</svg>
